<mxfile host="app.diagrams.net" modified="2024-05-16T04:26:00.195Z" agent="Mozilla/5.0 (Macintosh; Intel Mac OS X 10_15_7) AppleWebKit/537.36 (KHTML, like Gecko) Chrome/124.0.0.0 Safari/537.36" etag="sKvNVUsPtkLIr2OnZN-0" version="24.4.0" type="github">
  <diagram name="Page-1" id="Iq84fWNPrtKQmyQt2JiZ">
    <mxGraphModel dx="954" dy="606" grid="1" gridSize="10" guides="1" tooltips="1" connect="1" arrows="1" fold="1" page="1" pageScale="1" pageWidth="850" pageHeight="1100" math="0" shadow="0">
      <root>
        <mxCell id="0" />
        <mxCell id="1" parent="0" />
        <mxCell id="JvtbIx_WjhY9UZ5cS2aG-1" value="" style="rounded=0;whiteSpace=wrap;html=1;" parent="1" vertex="1">
          <mxGeometry x="375" y="90" width="900" height="2700" as="geometry" />
        </mxCell>
        <mxCell id="JvtbIx_WjhY9UZ5cS2aG-3" value="" style="rounded=0;whiteSpace=wrap;html=1;" parent="1" vertex="1">
          <mxGeometry x="407.5" y="120" width="835" height="440" as="geometry" />
        </mxCell>
        <mxCell id="JvtbIx_WjhY9UZ5cS2aG-5" value="" style="rounded=0;whiteSpace=wrap;html=1;" parent="1" vertex="1">
          <mxGeometry x="429.84000000000003" y="240" width="790.32" height="300" as="geometry" />
        </mxCell>
        <mxCell id="JvtbIx_WjhY9UZ5cS2aG-7" value="" style="rounded=0;whiteSpace=wrap;html=1;" parent="1" vertex="1">
          <mxGeometry x="868.13" y="260" width="340" height="260" as="geometry" />
        </mxCell>
        <mxCell id="oCNnzdYaPq4NdP22bzl6-1" value="" style="rounded=0;whiteSpace=wrap;html=1;" parent="1" vertex="1">
          <mxGeometry x="441.88" y="260" width="340" height="260" as="geometry" />
        </mxCell>
        <mxCell id="oCNnzdYaPq4NdP22bzl6-3" value="" style="rounded=0;whiteSpace=wrap;html=1;" parent="1" vertex="1">
          <mxGeometry x="466.88" y="280" width="250" height="50" as="geometry" />
        </mxCell>
        <mxCell id="oCNnzdYaPq4NdP22bzl6-4" value="" style="rounded=0;whiteSpace=wrap;html=1;" parent="1" vertex="1">
          <mxGeometry x="466.88" y="365" width="250" height="50" as="geometry" />
        </mxCell>
        <mxCell id="oCNnzdYaPq4NdP22bzl6-5" value="" style="rounded=0;whiteSpace=wrap;html=1;" parent="1" vertex="1">
          <mxGeometry x="466.88" y="450" width="220" height="40" as="geometry" />
        </mxCell>
        <mxCell id="oCNnzdYaPq4NdP22bzl6-7" value="" style="rounded=0;whiteSpace=wrap;html=1;" parent="1" vertex="1">
          <mxGeometry x="407.5" y="650" width="837.5" height="420" as="geometry" />
        </mxCell>
        <mxCell id="oCNnzdYaPq4NdP22bzl6-9" value="" style="rounded=0;whiteSpace=wrap;html=1;" parent="1" vertex="1">
          <mxGeometry x="428.75" y="140" width="792.5" height="70" as="geometry" />
        </mxCell>
        <mxCell id="oCNnzdYaPq4NdP22bzl6-13" value="" style="rounded=0;whiteSpace=wrap;html=1;" parent="1" vertex="1">
          <mxGeometry x="441.88" y="155" width="160" height="40" as="geometry" />
        </mxCell>
        <mxCell id="oCNnzdYaPq4NdP22bzl6-14" value="" style="rounded=0;whiteSpace=wrap;html=1;" parent="1" vertex="1">
          <mxGeometry x="1048.13" y="155" width="160" height="40" as="geometry" />
        </mxCell>
        <mxCell id="oCNnzdYaPq4NdP22bzl6-15" value="" style="rounded=0;whiteSpace=wrap;html=1;" parent="1" vertex="1">
          <mxGeometry x="420.32" y="670" width="809.37" height="380" as="geometry" />
        </mxCell>
        <mxCell id="oCNnzdYaPq4NdP22bzl6-16" value="" style="rounded=0;whiteSpace=wrap;html=1;" parent="1" vertex="1">
          <mxGeometry x="840.08" y="710" width="370" height="300" as="geometry" />
        </mxCell>
        <mxCell id="oCNnzdYaPq4NdP22bzl6-17" value="" style="rounded=0;whiteSpace=wrap;html=1;" parent="1" vertex="1">
          <mxGeometry x="439.91999999999996" y="710" width="370" height="300" as="geometry" />
        </mxCell>
        <mxCell id="oCNnzdYaPq4NdP22bzl6-18" value="" style="rounded=0;whiteSpace=wrap;html=1;" parent="1" vertex="1">
          <mxGeometry x="486.88" y="770" width="250" height="50" as="geometry" />
        </mxCell>
        <mxCell id="oCNnzdYaPq4NdP22bzl6-19" value="" style="rounded=0;whiteSpace=wrap;html=1;" parent="1" vertex="1">
          <mxGeometry x="486.88" y="860" width="250" height="50" as="geometry" />
        </mxCell>
        <mxCell id="oCNnzdYaPq4NdP22bzl6-20" value="" style="rounded=0;whiteSpace=wrap;html=1;" parent="1" vertex="1">
          <mxGeometry x="407.5" y="1110" width="837.5" height="420" as="geometry" />
        </mxCell>
        <mxCell id="oCNnzdYaPq4NdP22bzl6-21" value="" style="rounded=0;whiteSpace=wrap;html=1;" parent="1" vertex="1">
          <mxGeometry x="420.32" y="1130" width="809.37" height="380" as="geometry" />
        </mxCell>
        <mxCell id="oCNnzdYaPq4NdP22bzl6-22" value="" style="rounded=0;whiteSpace=wrap;html=1;" parent="1" vertex="1">
          <mxGeometry x="439.91999999999996" y="1170" width="370" height="300" as="geometry" />
        </mxCell>
        <mxCell id="oCNnzdYaPq4NdP22bzl6-23" value="" style="rounded=0;whiteSpace=wrap;html=1;" parent="1" vertex="1">
          <mxGeometry x="840.08" y="1170" width="370" height="300" as="geometry" />
        </mxCell>
        <mxCell id="oCNnzdYaPq4NdP22bzl6-24" value="" style="rounded=0;whiteSpace=wrap;html=1;" parent="1" vertex="1">
          <mxGeometry x="900.0799999999999" y="1230" width="250" height="50" as="geometry" />
        </mxCell>
        <mxCell id="oCNnzdYaPq4NdP22bzl6-25" value="" style="rounded=0;whiteSpace=wrap;html=1;" parent="1" vertex="1">
          <mxGeometry x="900.0799999999999" y="1320" width="250" height="50" as="geometry" />
        </mxCell>
        <mxCell id="oCNnzdYaPq4NdP22bzl6-26" value="" style="rounded=0;whiteSpace=wrap;html=1;" parent="1" vertex="1">
          <mxGeometry x="406.25" y="1580" width="837.5" height="420" as="geometry" />
        </mxCell>
        <mxCell id="oCNnzdYaPq4NdP22bzl6-27" value="" style="rounded=0;whiteSpace=wrap;html=1;" parent="1" vertex="1">
          <mxGeometry x="419.07" y="1600" width="809.37" height="380" as="geometry" />
        </mxCell>
        <mxCell id="oCNnzdYaPq4NdP22bzl6-28" value="" style="rounded=0;whiteSpace=wrap;html=1;" parent="1" vertex="1">
          <mxGeometry x="438.66999999999996" y="1640" width="370" height="300" as="geometry" />
        </mxCell>
        <mxCell id="oCNnzdYaPq4NdP22bzl6-29" value="" style="rounded=0;whiteSpace=wrap;html=1;" parent="1" vertex="1">
          <mxGeometry x="838.83" y="1640" width="370" height="300" as="geometry" />
        </mxCell>
        <mxCell id="oCNnzdYaPq4NdP22bzl6-30" value="" style="rounded=0;whiteSpace=wrap;html=1;" parent="1" vertex="1">
          <mxGeometry x="485.63" y="1700" width="250" height="50" as="geometry" />
        </mxCell>
        <mxCell id="oCNnzdYaPq4NdP22bzl6-31" value="" style="rounded=0;whiteSpace=wrap;html=1;" parent="1" vertex="1">
          <mxGeometry x="485.63" y="1790" width="250" height="50" as="geometry" />
        </mxCell>
        <mxCell id="agpOZs2yAOwrJkI-puKO-2" value="" style="rounded=0;whiteSpace=wrap;html=1;" parent="1" vertex="1">
          <mxGeometry x="405" y="2250" width="837.5" height="520" as="geometry" />
        </mxCell>
        <mxCell id="agpOZs2yAOwrJkI-puKO-3" value="" style="rounded=0;whiteSpace=wrap;html=1;" parent="1" vertex="1">
          <mxGeometry x="568.63" y="2070" width="515.24" height="250" as="geometry" />
        </mxCell>
        <mxCell id="agpOZs2yAOwrJkI-puKO-4" value="" style="rounded=0;whiteSpace=wrap;html=1;" parent="1" vertex="1">
          <mxGeometry x="675.62" y="2130" width="301.25" height="50" as="geometry" />
        </mxCell>
        <mxCell id="agpOZs2yAOwrJkI-puKO-5" value="" style="rounded=0;whiteSpace=wrap;html=1;" parent="1" vertex="1">
          <mxGeometry x="701.25" y="2210" width="250" height="50" as="geometry" />
        </mxCell>
        <mxCell id="uZmmG-meBNL2VsyJWwVD-1" value="" style="rounded=0;whiteSpace=wrap;html=1;" parent="1" vertex="1">
          <mxGeometry x="448.71" y="2380" width="180" height="50" as="geometry" />
        </mxCell>
        <mxCell id="uZmmG-meBNL2VsyJWwVD-2" value="" style="rounded=0;whiteSpace=wrap;html=1;" parent="1" vertex="1">
          <mxGeometry x="448.71" y="2460" width="206.25" height="220" as="geometry" />
        </mxCell>
        <mxCell id="uZmmG-meBNL2VsyJWwVD-3" value="" style="rounded=0;whiteSpace=wrap;html=1;" parent="1" vertex="1">
          <mxGeometry x="681.84" y="2460" width="156.25" height="220" as="geometry" />
        </mxCell>
        <mxCell id="uZmmG-meBNL2VsyJWwVD-5" value="" style="rounded=0;whiteSpace=wrap;html=1;" parent="1" vertex="1">
          <mxGeometry x="920" y="2710" width="273.75" height="30" as="geometry" />
        </mxCell>
        <mxCell id="VvrQqbfgA3EZlhgctbnx-1" value="" style="rounded=0;whiteSpace=wrap;html=1;" vertex="1" parent="1">
          <mxGeometry x="864.96" y="2460" width="156.25" height="220" as="geometry" />
        </mxCell>
        <mxCell id="VvrQqbfgA3EZlhgctbnx-2" value="" style="rounded=0;whiteSpace=wrap;html=1;" vertex="1" parent="1">
          <mxGeometry x="1048.1299999999999" y="2500" width="156.25" height="140" as="geometry" />
        </mxCell>
      </root>
    </mxGraphModel>
  </diagram>
</mxfile>
